<?xml version="1.0" encoding="UTF-8" standalone="no"?>
<!-- Created with Inkscape (http://www.inkscape.org/) -->

<svg
   xmlns:dc="http://purl.org/dc/elements/1.1/"
   xmlns:cc="http://creativecommons.org/ns#"
   xmlns:rdf="http://www.w3.org/1999/02/22-rdf-syntax-ns#"
   xmlns:svg="http://www.w3.org/2000/svg"
   xmlns="http://www.w3.org/2000/svg"
   xmlns:sodipodi="http://sodipodi.sourceforge.net/DTD/sodipodi-0.dtd"
   xmlns:inkscape="http://www.inkscape.org/namespaces/inkscape"
   id="svg3425"
   version="1.1"
   inkscape:version="0.91 r13725"
   width="512"
   height="512"
   viewBox="0 0 512 512"
   sodipodi:docname="logo.svg"
   inkscape:export-filename="/Users/user/Desktop/logo.png"
   inkscape:export-xdpi="90"
   inkscape:export-ydpi="90">
  <metadata
     id="metadata3431">
    <rdf:RDF>
      <cc:Work
         rdf:about="">
        <dc:format>image/svg+xml</dc:format>
        <dc:type
           rdf:resource="http://purl.org/dc/dcmitype/StillImage" />
        <dc:title />
      </cc:Work>
    </rdf:RDF>
  </metadata>
  <defs
     id="defs3429" />
  <sodipodi:namedview
     pagecolor="#ffffff"
     bordercolor="#666666"
     borderopacity="1"
     objecttolerance="10"
     gridtolerance="10"
     guidetolerance="10"
     inkscape:pageopacity="0"
     inkscape:pageshadow="2"
     inkscape:window-width="1277"
     inkscape:window-height="684"
     id="namedview3427"
     showgrid="false"
     showguides="true"
     inkscape:guide-bbox="true"
     inkscape:zoom="0.71"
     inkscape:cx="-182.95602"
     inkscape:cy="231.46851"
     inkscape:window-x="0"
     inkscape:window-y="0"
     inkscape:window-maximized="0"
     inkscape:current-layer="g3435">
    <sodipodi:guide
       position="630.98592,585.91549"
       orientation="0,1"
       id="guide3449" />
  </sodipodi:namedview>
  <g
     id="g3435"
     transform="translate(96.459612,31.629061)">
    <rect
       style="fill:#ffffff;fill-rule:evenodd;stroke:none;stroke-width:1.05173314px;stroke-linecap:butt;stroke-linejoin:miter;stroke-opacity:1"
       id="rect3339"
       width="510.94"
       height="510.94"
       x="-96.45961"
       y="-30.569063" />
    <g
       id="g3451"
       transform="matrix(0.72675094,0,0,0.72675094,43.828962,59.928273)">
      <path
         inkscape:connector-curvature="0"
         id="path3447"
         d="M 47.799161,224.6875 C 47.9637,140.64062 48.244395,96.625 48.422927,126.875 c 0.856855,145.18252 0.862987,250.62525 0.01457,250.62514 -0.515625,-8e-5 -0.802878,-68.76577 -0.638339,-152.81264 z"
         style="fill:#d4e7ea" />
      <path
         inkscape:connector-curvature="0"
         id="path3445"
         d="M 0.61112884,219.375 C 0.61115,99.0625 0.75798569,50.028904 0.93743035,110.41145 1.116875,170.794 1.1168577,269.2315 0.93739186,329.16145 0.75792604,389.0914 0.61110768,339.6875 0.61112884,219.375 Z M 129.32591,354.6875 c -0.32759,-0.85938 -0.45049,-55 -0.2731,-120.3125 l 0.32253,-118.75 0.62484,120.31259 c 0.34364,66.17192 0.46654,120.31255 0.27309,120.3125 -0.19346,-5e-5 -0.61976,-0.70322 -0.94736,-1.56259 z m 42.51124,-25 c -0.99668,-2.6648 -1.26858,-205.73399 -0.27465,-205.11953 0.51562,0.31876 0.9375,46.6245 0.9375,102.90163 0,80.68806 0.33036,102.45538 1.5625,102.95255 1.22382,0.49382 1.21532,0.65187 -0.0393,0.72916 -0.88096,0.0542 -1.86471,-0.60444 -2.18612,-1.46381 z"
         style="fill:#a9cfd5" />
      <path
         inkscape:connector-curvature="0"
         id="path3441"
         d="M 1.25,219.3174 1.25,1.2468353 98.75,50 l 97.5,48.753165 0,119.308395 0,119.30839 -3.4375,-1.08816 c -1.89063,-0.59849 -7.23111,-2.30151 -11.86776,-3.78448 L 172.51449,329.801 172.19474,227.09788 171.875,124.39475 110.625,98.457921 C 76.9375,84.192665 48.953125,72.516346 48.4375,72.510546 47.921875,72.504745 47.5,141.125 47.5,225 c 0,83.875 0.383465,152.5 0.852145,152.5 0.468679,0 16.928151,-4.21035 36.576604,-9.35634 l 35.724461,-9.35634 22.31526,9.28987 c 12.27339,5.10944 22.52439,9.49901 22.77999,9.75461 0.25561,0.25561 -33.13635,12.45525 -74.204357,27.11031 C 50.476096,419.59719 13.359375,432.89275 9.0625,434.48782 l -7.8125,2.90014 0,-218.07056 z"
         style="fill:#4fa7b3" />
      <path
         sodipodi:nodetypes="cccccccscscsscssccc"
         inkscape:connector-curvature="0"
         id="path3437"
         d="M 225.3125,393.44763 130,354.6267 l 0,-119.09812 0,-119.09812 11.5625,4.68581 13.5625,4.68581 -0.75,205.93113 60,19.72999 c 33,10.8515 60.70312,19.74278 61.5625,19.7584 1.24159,0.0226 1.5625,-31.18164 1.5625,-151.93084 l 0,-151.959229 -2.8125,0.875714 c -1.54688,0.481644 -18.19903,6.400073 -37.00476,13.152066 l -34.19228,12.27635 -18.75382,-9.392565 C 174.42203,79.077186 166.1849,74.648432 166.43191,74.401422 166.82207,74.011257 320.1875,1.6342754 320.1875,1.6342754 l 0,430.7500146 c 0,0 -42.45313,-17.58514 -94.875,-38.93666 z"
         style="fill:#003a4e" />
    </g>
  </g>
</svg>
