<?xml version="1.0" encoding="UTF-8" standalone="no"?>
<svg
   xmlns:dc="http://purl.org/dc/elements/1.1/"
   xmlns:cc="http://creativecommons.org/ns#"
   xmlns:rdf="http://www.w3.org/1999/02/22-rdf-syntax-ns#"
   xmlns:svg="http://www.w3.org/2000/svg"
   xmlns="http://www.w3.org/2000/svg"
   xmlns:sodipodi="http://sodipodi.sourceforge.net/DTD/sodipodi-0.dtd"
   xmlns:inkscape="http://www.inkscape.org/namespaces/inkscape"
   width="250"
   height="250"
   viewBox="0 0 200.00007 200.00007"
   id="svg2"
   version="1.1"
   inkscape:version="0.91 r13725"
   sodipodi:docname="myrrord-logo.svg">
  <metadata
     id="metadata9">
    <rdf:RDF>
      <cc:Work
         rdf:about="">
        <dc:format>image/svg+xml</dc:format>
        <dc:type
           rdf:resource="http://purl.org/dc/dcmitype/StillImage" />
        <dc:title></dc:title>
      </cc:Work>
    </rdf:RDF>
  </metadata>
  <defs
     id="defs7" />
  <sodipodi:namedview
     pagecolor="#ffffff"
     bordercolor="#666666"
     borderopacity="1"
     objecttolerance="10"
     gridtolerance="10"
     guidetolerance="10"
     inkscape:pageopacity="0"
     inkscape:pageshadow="2"
     inkscape:window-width="1366"
     inkscape:window-height="706"
     id="namedview5"
     showgrid="false"
     units="px"
     inkscape:zoom="0.91650522"
     inkscape:cx="128.74995"
     inkscape:cy="128.74995"
     inkscape:window-x="-8"
     inkscape:window-y="-8"
     inkscape:window-maximized="1"
     inkscape:current-layer="svg2" />
  <rect
     style="opacity:1;fill:#39b4b1;fill-opacity:1;stroke:none;stroke-opacity:1"
     id="rect4137"
     width="200.00009"
     height="200.00009"
     x="-6.1035184e-006"
     y="-2.2887757e-006" />
  <path
     id="Selection"
     d="m 57.659088,8.9484514 c 0,0 15.175264,-0.948454 15.175264,-0.948454 0,0 15.175265,0 15.175265,0 0,0 11.381449,0.929485 11.381449,0.929485 0,0 14.226814,-0.929485 14.226814,-0.929485 0,0 44.57733,0.948454 44.57733,0.948454 0,0 0,33.1958926 0,33.1958926 0.019,10.518355 3.73692,14.43547 6.28826,24.659805 2.69361,10.859799 3.31959,21.122072 3.19629,32.247436 -0.0949,7.748875 -2.35217,23.682905 -4.23959,31.298985 -2.22887,8.94393 -5.22598,13.37321 -5.24496,22.7629 0,0 0,38.88662 0,38.88662 0,0 -36.9897,0 -36.9897,0 0,0 -20.86599,-1.82102 -20.86599,-1.82102 0,0 -20.865989,1.82102 -20.865989,1.82102 0,0 -36.989708,0 -36.989708,0 0,0 0,-38.88662 0,-38.88662 -0.01897,-9.70268 -3.604126,-15.24166 -5.681241,-24.6598 -2.807424,-12.78517 -3.955053,-25.81693 -3.803301,-38.886623 0.09485,-7.559179 2.285775,-20.221041 4.476704,-27.505168 2.816909,-9.351758 4.988869,-9.427634 5.007838,-19.917535 0,0 0,-33.1958926 0,-33.1958926 0,0 15.175265,0 15.175265,0 z m -11.38145,3.7938156 c 0,0 0.948454,29.402077 0.948454,29.402077 0,0 7.843716,-10.432995 7.843716,-10.432995 0,0 5.491549,-8.915468 5.491549,-8.915468 0,0 8.479179,-2.532373 8.479179,-2.532373 0,0 18.020627,-8.469695 18.020627,-8.469695 0,0 -40.783525,0.948454 -40.783525,0.948454 z m 93.896952,0 c -7.02804,-0.08536 -20.23052,-2.513402 -26.55671,0 0,0 18.02062,7.521241 18.02062,7.521241 0,0 9.35176,3.205775 9.35176,3.205775 0,0 4.61897,8.242066 4.61897,8.242066 0,0 8.79217,10.432995 8.79217,10.432995 0,0 0,-29.402077 0,-29.402077 0,0 -14.22681,0 -14.22681,0 z m -36.04125,1.232991 c -7.369494,-1.062268 -19.433827,2.342681 -25.608263,6.39258 0,0 14.226811,0 14.226811,0 0,0 7.587632,0.83464 7.587632,0.83464 0,0 11.38144,-0.872578 11.38144,-0.872578 0,0 10.43299,-0.948454 10.43299,-0.948454 0,0 -18.02061,-5.406188 -18.02061,-5.406188 z m -43.059818,18.69403 c -0.654433,1.73567 -0.588042,4.742269 -0.569073,6.629693 0.03794,2.532372 0.01897,3.338558 0.948454,5.690725 4.912993,-6.49691 10.992584,-12.462687 18.020628,-16.64537 0,0 7.587632,-4.22062 7.587632,-4.22062 -8.156704,0 -22.355062,-1.071753 -25.987641,8.545572 z m 78.133648,-0.920001 c -3.87918,-7.378972 -18.56125,-9.465572 -25.58929,-6.677117 12.74722,3.642064 17.4895,12.007428 26.55671,19.917536 0,-3.300621 0.45526,-10.527841 -0.96742,-13.240419 z m 0.96742,102.395113 c 0,0 0,-73.030976 0,-73.030976 0,-2.513403 0.10433,-5.150105 -0.60701,-7.587632 -2.06762,-7.179797 -10.41403,-15.488255 -16.46516,-19.576091 -5.57692,-3.765364 -15.95299,-8.327427 -22.7629,-8.327427 -13.961244,0 -34.229707,13.913821 -38.915071,26.955064 -1.062267,2.940207 -0.910515,5.482064 -0.92,8.536086 0,0 0,42.680426 0,42.680426 0,0 0,23.71137 0,23.71137 0,3.49979 -0.275051,10.1769 0.597527,13.27836 1.621855,5.67175 6.202889,12.51959 10.783923,16.1237 0,0 16.152172,-29.40206 16.152172,-29.40206 0,0 0.550104,-10.43301 0.550104,-10.43301 0,0 3.556702,-8.53607 3.556702,-8.53607 0,0 -2.190929,-7.58764 -2.190929,-7.58764 0,0 -5.738147,-15.17527 -5.738147,-15.17527 0,0 -5.501034,25.60827 -5.501034,25.60827 -0.550102,2.72207 -1.062268,7.83423 -3.442888,9.46557 -1.963299,1.33733 -7.54021,0.96742 -10.025159,0.96742 0,0 7.397942,-37.938168 7.397942,-37.938168 0,0 3.30062,-20.865989 3.30062,-20.865989 0,0 -5.007837,-9.484541 -5.007837,-9.484541 0,0 12.88949,0.967424 12.88949,0.967424 0,0 4.751755,8.517117 4.751755,8.517117 0,0 11.76083,18.969081 11.76083,18.969081 0,0 10.81238,-18.969081 10.81238,-18.969081 0,0 4.75176,-8.517117 4.75176,-8.517117 0,0 12.88947,-0.967424 12.88947,-0.967424 0,0 -4.93194,9.484541 -4.93194,9.484541 0,0 3.60412,20.865989 3.60412,20.865989 0,0 7.967,37.938168 7.967,37.938168 0,0 -10.02515,-0.96742 -10.02515,-0.96742 0,0 -3.58515,-9.46557 -3.58515,-9.46557 0,0 -6.30723,-25.60827 -6.30723,-25.60827 0,0 -7.91011,22.76291 -7.91011,22.76291 0,0 2.67464,8.53607 2.67464,8.53607 0,0 0,6.63918 0,6.63918 0,0 5.91835,12.32991 5.91835,12.32991 0,0 11.64702,20.86598 11.64702,20.86598 7.65404,-3.80329 12.29198,-14.5303 12.32991,-22.76288 z M 46.277638,56.371155 c 0,0 0,63.546425 0,63.546425 0,17.42311 -2.636702,27.68537 10.432996,41.73198 0,0 0,-14.2268 0,-14.2268 -0.04743,-9.35178 -2.162477,-10.66064 -4.287012,-18.96909 -1.735671,-6.78146 -3.291137,-18.61816 -3.300621,-25.60826 -0.01898,-10.575265 -0.341444,-18.807851 1.365773,-29.402082 0,0 3.139383,-13.278357 3.139383,-13.278357 0,0 2.90227,-7.587633 2.90227,-7.587633 0,0 0,-16.123719 0,-16.123719 -5.501034,4.808662 -10.148459,12.377325 -10.252789,19.917536 z M 150.34203,74.391782 c 2.2573,15.924543 1.76412,35.443728 -1.45115,51.216528 0,0 -4.20165,15.17527 -4.20165,15.17527 -1.10968,4.12576 -1.27092,17.09113 0,20.86598 4.94144,-8.44124 9.58887,-12.60495 9.71217,-22.7629 0,0 0,-56.907246 0,-56.907246 0,-5.510518 0.54063,-27.618982 -0.66391,-31.298984 -1.23299,-3.793817 -6.28826,-10.954645 -8.82063,-14.226811 -4.46722,11.25815 3.78434,26.376508 5.42517,37.938163 z M 38.367532,77.237144 c -2.162475,13.259387 -1.821033,23.749306 0,36.989716 0.796701,5.10268 1.545979,12.69031 4.116291,17.07218 0,0 0,-69.237161 0,-69.237161 -2.532373,4.268043 -3.404951,10.281242 -4.116291,15.175265 z M 158.19521,81.03096 c 0,0 0,33.1959 0,33.1959 0,0 0.94847,17.07218 0.94847,17.07218 2.23835,-11.89363 4.7233,-23.88208 4.74226,-36.041265 0.019,-13.543928 -2.18143,-20.458158 -4.74226,-33.195896 0,0 -0.94847,18.969081 -0.94847,18.969081 z M 53.713518,111.3815 c 0.540619,5.08372 0.863093,11.48577 2.997116,16.12372 0,0 0,-61.649525 0,-61.649525 -4.931962,9.645778 -4.182683,34.504755 -2.997116,45.525805 z M 143.96841,81.03096 c 0,0 0,29.40207 0,29.40207 0,0 0.94845,17.07219 0.94845,17.07219 0,0 2.84536,-26.55672 2.84536,-26.55672 0.0285,-18.428467 -0.48371,-17.612797 -2.84536,-35.092805 0,0 -0.94845,15.175265 -0.94845,15.175265 z m -45.525797,49.31961 c 0,0 -10.034644,18.02064 -10.034644,18.02064 0,0 -6.259797,8.51711 -6.259797,8.51711 0,0 -9.31382,0.96743 -9.31382,0.96743 6.373612,8.89649 19.860629,17.81195 31.298988,15.81072 3.24371,-0.55959 6.57279,-2.22887 9.48454,-3.72741 6.3167,-3.24372 10.06309,-6.2693 14.2268,-12.08331 0,0 -10.26226,-0.96743 -10.26226,-0.96743 0,0 -6.25981,-8.51711 -6.25981,-8.51711 0,0 -10.03464,-18.02064 -10.03464,-18.02064 0,0 -2.845357,0 -2.845357,0 z m -37.938164,29.40208 c 0.0095,1.76412 -0.04743,4.03093 0.569073,5.69073 1.44165,3.8602 7.910106,8.48867 11.76083,9.76908 2.598765,0.87257 7.559179,0.70185 10.432995,0.66391 2.532373,-0.0379 3.329075,-0.01 5.690724,-0.94845 -11.163304,-4.83711 -20.752174,-14.67258 -27.505168,-24.65982 -1.261443,3.16784 -0.967423,6.10806 -0.948454,9.48455 z m 73.808691,-2.84537 c 0,0 -11.21072,11.21073 -11.21072,11.21073 0,0 -11.38146,7.75836 -11.38146,7.75836 9.54146,0 14.70105,1.57444 22.7629,-4.51464 2.13403,-1.62185 4.15423,-3.32908 5.12166,-5.91835 0.90104,-2.40908 0.56907,-12.02639 0.56907,-15.17528 0,0 -5.86145,6.63918 -5.86145,6.63918 z m -88.035502,9.48454 c 0,0 0,21.81446 0,21.81446 0,0 27.505168,0 27.505168,0 4.988869,0 9.788046,0.68289 14.226811,-1.89692 0,0 -17.072172,-6.54433 -17.072172,-6.54433 0,0 -11.239181,-3.23422 -11.239181,-3.23422 0,0 -3.94557,-9.19052 -3.94557,-9.19052 0,0 -8.526602,-13.27835 -8.526602,-13.27835 0,0 -0.948454,12.32988 -0.948454,12.32988 z m 98.648702,0.94847 c 0,0 -3.94556,9.19052 -3.94556,9.19052 0,0 -11.23918,3.23422 -11.23918,3.23422 0,0 -17.07217,7.4928 -17.07217,7.4928 0,0 41.73197,0.94845 41.73197,0.94845 0,0 0,-34.14434 0,-34.14434 0,0 -9.47506,13.27835 -9.47506,13.27835 z m -84.421891,4.74226 c 0,0 0.948454,0.94845 0.948454,0.94845 0,0 0,-0.94845 0,-0.94845 0,0 -0.948454,0 -0.948454,0 z m 78.721701,0 c 0,0 0.94844,0.94845 0.94844,0.94845 0,0 0,-0.94845 0,-0.94845 0,0 -0.94844,0 -0.94844,0 z M 61.452903,173.031 c 0,0 0.948455,0.94847 0.948455,0.94847 0,0 0,-0.94847 0,-0.94847 0,0 -0.948455,0 -0.948455,0 z m 76.824777,0 c 0,0 0.94847,0.94847 0.94847,0.94847 0,0 0,-0.94847 0,-0.94847 0,0 -0.94847,0 -0.94847,0 z m -75.876322,0.94847 c 0,0 0.948454,0.94845 0.948454,0.94845 0,0 0,-0.94845 0,-0.94845 0,0 -0.948454,0 -0.948454,0 z m 74.927872,0 c 0,0 0.94845,0.94845 0.94845,0.94845 0,0 0,-0.94845 0,-0.94845 0,0 -0.94845,0 -0.94845,0 z m -30.35053,5.65277 c 0,0 -6.63918,-0.73978 -6.63918,-0.73978 0,0 -7.587632,0.73978 -7.587632,0.73978 0,0 -10.432995,0.98641 -10.432995,0.98641 11.286603,3.76535 15.60207,6.50639 27.505177,2.82639 3.37648,-1.05279 5.63381,-1.69775 8.53607,-3.8128 0,0 -11.38144,0 -11.38144,0 z"
     inkscape:connector-curvature="0"
     style="fill:#ffffff;stroke:none;stroke-width:1" />
</svg>
