<?xml version="1.0" encoding="UTF-8" standalone="no"?>
<svg
   xmlns:dc="http://purl.org/dc/elements/1.1/"
   xmlns:cc="http://creativecommons.org/ns#"
   xmlns:rdf="http://www.w3.org/1999/02/22-rdf-syntax-ns#"
   xmlns:svg="http://www.w3.org/2000/svg"
   xmlns="http://www.w3.org/2000/svg"
   xmlns:sodipodi="http://sodipodi.sourceforge.net/DTD/sodipodi-0.dtd"
   xmlns:inkscape="http://www.inkscape.org/namespaces/inkscape"
   width="250"
   height="250"
   viewBox="0 0 200.00007 200.00007"
   id="svg2"
   version="1.1"
   inkscape:version="0.91 r13725"
   sodipodi:docname="logo.svg">
  <metadata
     id="metadata9">
    <rdf:RDF>
      <cc:Work
         rdf:about="">
        <dc:format>image/svg+xml</dc:format>
        <dc:type
           rdf:resource="http://purl.org/dc/dcmitype/StillImage" />
        <dc:title></dc:title>
      </cc:Work>
    </rdf:RDF>
  </metadata>
  <defs
     id="defs7" />
  <sodipodi:namedview
     pagecolor="#ffffff"
     bordercolor="#666666"
     borderopacity="1"
     objecttolerance="10"
     gridtolerance="10"
     guidetolerance="10"
     inkscape:pageopacity="0"
     inkscape:pageshadow="2"
     inkscape:window-width="1366"
     inkscape:window-height="706"
     id="namedview5"
     showgrid="false"
     units="px"
     inkscape:zoom="1"
     inkscape:cx="119.38119"
     inkscape:cy="173.32847"
     inkscape:window-x="-8"
     inkscape:window-y="-8"
     inkscape:window-maximized="1"
     inkscape:current-layer="svg2" />
  <rect
     style="opacity:1;fill:#39b4b1;fill-opacity:1;stroke:none;stroke-opacity:1"
     id="rect4137"
     width="200.00009"
     height="200.00009"
     x="-6.1035184e-006"
     y="-2.2887757e-006" />
  <path
     id="Selection"
     d="m 41.701269,8.9484514 20.728128,-0.948454 20.728129,0 15.546098,0.929485 19.432616,-0.929485 60.88887,0.948454 0,33.1958926 c 0.0259,10.518355 5.10432,14.43547 8.58923,24.659805 3.67924,10.859799 4.53428,21.122072 4.36586,32.247436 -0.12963,7.748875 -3.21286,23.682905 -5.79092,31.298985 -3.04444,8.94393 -7.13824,13.37321 -7.16417,22.7629 l 0,38.88662 -50.5248,0 -28.501174,-1.82102 -28.501182,1.82102 -50.524815,0 0,-38.88662 c -0.02591,-9.70268 -4.922931,-15.24166 -7.760095,-24.6598 C 9.3783405,115.6685 7.8107763,102.63674 8.0180567,89.567047 8.1476138,82.007868 11.140232,69.346006 14.132856,62.061879 c 3.84766,-9.351758 6.814374,-9.427634 6.840283,-19.917535 l 0,-33.1958926 z m -15.546098,3.7938156 1.295508,29.402077 10.713852,-10.432995 7.500992,-8.915468 11.581842,-2.532373 24.614653,-8.469695 z m 128.255299,0 c -9.59971,-0.08536 -27.63319,-2.513402 -36.27423,0 l 24.61465,7.521241 12.77371,3.205775 6.30912,8.242066 12.00936,10.432995 0,-29.402077 z m -49.22931,1.232991 C 95.115063,12.91299 78.636204,16.317939 70.202446,20.367838 l 19.432621,0 10.364069,0.83464 15.546074,-0.872578 14.25059,-0.948454 z m -58.816063,18.69403 c -0.8939,1.73567 -0.803216,4.742269 -0.777305,6.629693 0.05183,2.532372 0.02591,3.338558 1.295508,5.690725 6.710733,-6.49691 15.01494,-12.462687 24.614654,-16.64537 l 10.364064,-4.22062 c -11.141368,0 -30.535125,-1.071753 -35.496921,8.545572 z M 153.08905,31.749287 c -5.29863,-7.378972 -25.35309,-9.465572 -34.95281,-6.677117 17.41163,3.642064 23.88918,12.007428 36.27423,19.917536 0,-3.300621 0.62184,-10.527841 -1.32142,-13.240419 z m 1.32142,102.395113 0,-73.030976 c 0,-2.513403 0.1425,-5.150105 -0.82913,-7.587632 -2.8242,-7.179797 -14.22468,-15.488255 -22.49001,-19.576091 -7.61761,-3.765364 -21.79044,-8.327427 -31.092194,-8.327427 -19.069884,0 -46.754891,13.913821 -53.154702,26.955064 -1.450967,2.940207 -1.243686,5.482064 -1.256642,8.536086 l 0,42.680426 0,23.71137 c 0,3.49979 -0.375697,10.1769 0.816171,13.27836 2.215317,5.67175 8.872622,4.91959 15.129927,8.5237 l 22.062502,-29.40206 0.751395,-10.43301 4.858155,-8.53607 -2.992623,-7.587644 -7.837825,-15.17527 -7.513947,25.608274 c -0.751392,2.72207 -1.450968,7.83423 -4.702694,9.46557 -2.681701,1.33733 -10.29929,0.96742 -13.69352,0.96742 l 10.104963,-37.938172 4.508369,-20.865989 -6.840283,-9.484541 17.605955,0.967424 6.490495,8.517117 16.064308,18.969081 14.76878,-18.969081 6.49051,-8.517117 17.60592,-0.967424 -6.73661,9.484541 4.92292,20.865989 10.88225,37.938172 -13.6935,-0.96742 -4.89701,-9.46557 -8.61515,-25.608274 -10.80454,22.762914 3.65333,8.53607 0,6.63918 8.08397,12.32991 15.90884,20.86598 c 10.45477,-3.80329 16.38981,-6.9303 16.44162,-15.16288 z M 26.155171,56.371155 l 0,63.546425 c 0,17.42311 -3.601512,27.68537 14.25059,41.73198 l 0,-14.2268 c -0.06479,-9.35178 -2.953761,-10.66064 -5.855696,-18.96909 -2.37078,-6.78146 -4.495415,-18.61816 -4.508369,-25.60826 -0.02592,-10.575265 -0.466384,-18.807851 1.86553,-29.402082 l 4.288132,-13.278357 3.964255,-7.587633 0,-16.123719 C 32.645666,41.262281 26.297676,48.830944 26.155171,56.371155 Z M 168.29833,74.391782 c 3.08328,15.924543 2.40963,35.443728 -1.98215,51.216528 l -5.7391,15.17527 c -1.51573,4.12576 -1.73597,17.09113 0,20.86598 6.74959,-8.44124 13.09759,-12.60495 13.266,-22.7629 l 0,-56.907246 c 0,-5.510518 0.73846,-27.618982 -0.90684,-31.298984 -1.68416,-3.793817 -8.58923,-10.954645 -12.04824,-14.226811 -6.10184,11.25815 5.1691,26.376508 7.41033,37.938163 z M 15.350634,77.237144 c -2.953758,13.259387 -2.487377,23.749306 0,36.989716 1.088226,5.10268 2.111677,12.69031 5.622505,17.07218 l 0,-69.237161 c -3.459007,4.268043 -4.650875,10.281242 -5.622505,15.175265 z m 163.674476,3.793816 0,33.1959 1.29553,17.07218 c 3.0574,-11.89363 6.45163,-23.88208 6.47753,-36.041265 0.026,-13.543928 -2.97965,-20.458158 -6.47753,-33.195896 z M 36.311954,111.3815 c 0.73844,5.08372 1.178912,11.48577 4.093807,16.12372 l 0,-61.649525 C 33.669118,75.501473 34.692569,100.36045 36.311954,111.3815 Z M 159.5925,81.03096 l 0,29.40207 1.2955,17.07219 3.88652,-26.55672 c 0.0389,-18.428467 -0.6607,-17.612797 -3.88652,-35.092805 z m -61.784383,41.71961 -13.706475,18.02064 -8.550354,8.51711 -13.121891,8.56743 c 8.705816,8.89649 27.127941,17.81195 42.751763,15.81072 4.43064,-0.55959 8.97788,-2.22887 12.95508,-3.72741 8.62808,-3.24372 13.74533,-6.2693 19.43261,-12.08331 l -13.61738,-8.56743 -8.55037,-8.51711 -13.70647,-18.02064 z m -52.220325,37.00208 c 0.01298,1.76412 -0.06479,4.03093 0.777305,5.69073 1.969172,3.8602 10.804536,8.48867 16.0643,9.76908 3.549693,0.87257 10.325199,0.70185 14.250589,0.66391 3.459008,-0.0379 4.547235,-0.01 7.773048,-0.94845 C 69.204905,170.09081 56.107319,160.25534 46.8833,150.2681 c -1.723025,3.16784 -1.321419,6.10806 -1.295508,9.48455 z m 100.816428,-2.84537 -15.31289,11.21073 -15.54612,7.75836 c 13.03283,0 20.0804,1.57444 31.0922,-4.51464 2.9149,-1.62185 5.67433,-3.32908 6.99576,-5.91835 1.23074,-2.40908 0.7773,-12.02639 0.7773,-15.17528 z m -120.249049,9.48454 0,21.81446 37.569734,0 c 6.814373,0 13.369644,0.68289 19.432621,-1.89692 l -23.319144,-6.54433 -15.351771,-3.23422 -5.389315,-9.19052 -11.646617,-13.27835 z m 134.745779,0.94847 -5.38929,9.19052 -15.35177,3.23422 -23.31915,7.4928 57.00234,0.94845 0,-34.14434 z m -115.313158,4.74226 1.295508,0.94845 0,-0.94845 z m 107.527188,0 1.29549,0.94845 0,-0.94845 z M 46.8833,173.031 l 1.295509,0.94847 0,-0.94847 z m 104.93615,0 1.29553,0.94847 0,-0.94847 z m -103.640641,0.94847 1.295508,0.94845 0,-0.94845 z m 102.345131,0 1.29551,0.94845 0,-0.94845 z m -41.45626,5.65277 -9.068544,-0.73978 -10.364069,0.73978 -14.250589,0.98641 c 15.416546,3.76535 21.311109,6.50639 37.569742,2.82639 4.61199,-1.05279 7.69531,-1.69775 11.65955,-3.8128 z"
     inkscape:connector-curvature="0"
     style="fill:#ffffff;stroke:none;stroke-width:1"
     sodipodi:nodetypes="ccccccccccccccccccccccccccccccccccccccccccccccccccccccccsccscccsccccccccccccccccccccccccccccccccsccccccccccccccscccccccccccccccccccccccccccccccccccccccccccccccccccscccccccccccccccccccccccccccccccccccccccccccc" />
</svg>
